<?xml version="1.0" standalone="no"?>
<!DOCTYPE svg PUBLIC "-//W3C//DTD SVG 20010904//EN"
 "http://www.w3.org/TR/2001/REC-SVG-20010904/DTD/svg10.dtd">
<svg version="1.0" xmlns="http://www.w3.org/2000/svg"
 width="600.000000pt" height="600.000000pt" viewBox="0 0 600.000000 600.000000"
 preserveAspectRatio="xMidYMid meet">

<g transform="translate(0.000000,600.000000) scale(0.100000,-0.100000)"
fill="#000000" stroke="none">
<path d="M2559 4563 c-26 -32 -55 -78 -62 -97 -7 -18 -8 -18 -26 -1 -11 9 -27
15 -37 13 -25 -5 -54 -48 -61 -93 -3 -22 -14 -46 -23 -52 -10 -7 -21 -28 -24
-46 -4 -23 -15 -38 -31 -45 -30 -14 -31 -21 -4 -67 25 -42 20 -50 -29 -50 -35
0 -37 -2 -35 -29 3 -36 45 -82 84 -90 38 -7 101 -55 92 -70 -3 -6 -3 -8 2 -4
4 4 17 1 29 -7 11 -8 27 -15 36 -15 8 0 22 -15 31 -33 9 -17 28 -39 42 -47 23
-13 31 -13 69 1 24 8 54 13 67 11 22 -3 23 -7 17 -50 -20 -155 -34 -229 -44
-248 -8 -15 -9 -78 -3 -230 5 -115 7 -211 5 -213 -2 -2 -6 20 -10 48 -3 28
-13 56 -20 62 -8 6 -14 8 -14 3 0 -5 -9 6 -20 24 -11 18 -26 32 -33 30 -6 -1
-27 12 -44 31 -36 35 -68 39 -87 9 -8 -14 -6 -20 8 -31 11 -8 17 -21 13 -30
-3 -8 1 -23 8 -34 8 -10 15 -26 15 -35 0 -11 12 -20 32 -26 38 -10 47 -28 18
-37 -15 -5 -20 -14 -18 -28 3 -19 11 -23 58 -27 62 -6 108 -32 115 -64 2 -11
14 -70 25 -131 12 -60 41 -187 65 -282 l44 -172 -24 -65 c-41 -110 -68 -299
-67 -481 0 -88 4 -175 9 -193 5 -21 8 45 8 180 0 161 5 236 18 308 23 121 57
228 67 209 10 -19 84 -337 111 -479 22 -116 23 -239 4 -435 -4 -38 -3 -55 3
-45 5 8 14 83 20 165 15 198 5 269 -109 748 -28 115 -19 141 52 156 28 6 79
11 114 11 65 0 92 14 61 32 -25 14 -19 25 19 38 22 7 35 18 35 29 0 10 10 23
23 30 24 14 68 76 59 85 -10 11 -111 6 -117 -5 -4 -6 -13 -8 -21 -5 -9 3 -19
-7 -28 -29 -16 -37 -25 -42 -43 -24 -8 8 -16 3 -29 -17 -30 -47 -77 -104 -82
-100 -2 3 5 17 15 33 11 15 58 102 105 193 76 147 118 258 118 313 0 11 8 17
25 17 13 0 40 14 60 31 l35 31 0 -41 c0 -23 5 -41 11 -41 23 0 51 23 64 53 17
41 4 67 -34 67 -15 0 -36 9 -46 20 -10 11 -25 20 -34 20 -9 0 -4 7 13 15 15 8
33 12 39 8 6 -3 7 -1 3 5 -4 7 -2 12 4 12 7 0 19 9 28 20 10 11 51 33 92 48
91 34 97 49 45 116 -30 40 -35 53 -29 78 6 30 5 31 -24 25 -18 -4 -34 -2 -38
4 -3 6 -17 14 -30 19 -16 7 -24 17 -24 34 0 13 -7 27 -16 30 -13 5 -14 3 -6
-6 8 -11 3 -13 -28 -10 -22 2 -44 10 -51 18 -27 33 -109 3 -130 -49 -11 -27
-15 -28 -53 -23 -49 7 -106 -5 -144 -30 -27 -18 -59 -20 -75 -4 -5 4 8 17 28
29 25 14 35 26 31 37 -3 8 0 23 6 34 10 16 9 26 -9 57 -25 43 -43 54 -43 25 0
-10 -11 -31 -25 -46 -14 -15 -25 -31 -25 -35 0 -5 -9 -11 -20 -14 -13 -3 -22
-17 -26 -36 -4 -17 -10 -31 -15 -31 -13 0 -10 50 9 160 15 84 19 95 37 93 11
-1 31 2 46 8 19 8 35 5 70 -10 53 -25 117 -26 186 -6 35 10 52 21 56 35 3 11
1 18 -4 14 -5 -3 -17 0 -26 5 -15 9 -14 11 12 12 17 1 34 0 40 -1 5 -1 7 1 4
4 -3 4 11 24 32 45 31 30 39 46 39 74 0 20 -4 39 -10 42 -5 3 -10 19 -10 36 0
16 -5 29 -11 29 -6 0 -9 9 -6 20 3 11 2 20 -1 20 -4 0 -18 9 -32 19 -21 17
-22 21 -10 36 18 22 14 104 -8 130 -15 18 -15 18 0 7 11 -9 18 -10 23 -2 3 6
10 8 15 5 16 -10 21 47 6 71 -25 37 -107 55 -149 32 -12 -6 -39 -11 -59 -11
-22 0 -39 -5 -42 -13 -7 -19 -36 -18 -36 2 0 26 -51 105 -74 114 -12 4 -31 4
-44 -1 -31 -12 -69 -11 -77 0 -3 6 8 8 29 4 21 -3 36 -1 41 7 6 10 1 11 -20 6
-22 -6 -31 -2 -42 14 -10 14 -22 20 -34 17 -11 -3 -22 -1 -25 4 -9 15 -40 10
-55 -8z m52 -42 c-11 -7 -9 -10 10 -13 30 -4 28 -21 -3 -29 -22 -6 -22 -7 7
-19 17 -7 33 -13 37 -12 10 2 38 -76 38 -109 0 -16 -6 -45 -14 -64 -10 -23
-11 -37 -4 -41 14 -9 23 8 38 70 11 46 10 60 -4 104 -11 32 -24 52 -36 55 -33
9 -22 23 14 19 18 -2 43 1 55 7 16 9 26 8 45 -5 53 -34 58 -130 11 -210 -14
-24 -21 -44 -16 -44 16 0 50 50 62 90 10 34 19 41 84 67 6 3 4 0 -4 -5 -11 -8
-5 -14 23 -27 20 -10 36 -21 36 -25 0 -5 9 -6 20 -3 15 4 20 0 20 -16 0 -22
-14 -28 -25 -11 -3 6 -1 10 6 10 7 0 10 2 7 5 -9 9 -38 -7 -38 -21 0 -7 -9
-18 -20 -24 -13 -7 -20 -21 -20 -40 0 -16 -5 -41 -12 -55 -9 -20 -9 -28 0 -34
8 -4 1 -13 -18 -24 -25 -15 -29 -16 -24 -2 3 8 3 26 0 40 -5 19 -13 25 -34 26
-15 0 -21 3 -14 6 10 4 10 8 1 19 -9 11 -17 10 -48 -5 -39 -20 -106 -16 -135
8 -11 9 -15 9 -19 -1 -3 -7 -6 -3 -6 10 -1 12 -10 31 -21 42 -11 11 -20 24
-20 30 0 5 -9 24 -20 42 -11 18 -20 43 -20 55 0 13 -9 28 -20 35 -25 16 -25
29 1 62 22 28 51 44 79 45 13 1 13 -1 1 -8z m-124 -90 c23 -21 45 -51 49 -67
4 -16 13 -37 22 -46 8 -10 12 -24 9 -32 -4 -9 2 -21 12 -28 17 -12 39 -84 23
-75 -4 3 -14 -2 -22 -11 -13 -14 -12 -15 5 -8 19 7 19 6 3 -10 -11 -11 -22
-14 -35 -9 -10 5 -21 7 -25 7 -5 -1 -8 8 -8 21 0 27 -26 67 -44 67 -7 0 -19
12 -27 28 -7 15 -24 37 -38 50 -20 20 -23 30 -18 68 4 40 29 85 46 84 3 -1 25
-18 48 -39z m-107 -132 c0 -13 -4 -18 -12 -13 -8 5 -9 1 -4 -12 5 -14 4 -16
-4 -8 -13 13 -5 54 11 54 5 0 9 -9 9 -21z m710 -8 c0 -4 -9 -7 -20 -7 -20 0
-25 7 -14 19 7 7 34 -2 34 -12z m-580 -105 c0 -19 -23 -33 -28 -18 -2 7 -9 9
-15 5 -7 -4 -6 1 2 10 17 21 41 22 41 3z m-45 -44 c-3 -3 9 -12 27 -20 18 -8
27 -16 21 -19 -16 -6 -23 -5 -22 3 0 4 -10 12 -22 18 -27 13 -39 39 -14 30 9
-4 13 -9 10 -12z m394 2 c2 -2 0 -16 -4 -31 l-7 -28 -9 24 c-6 14 -15 31 -22
39 -10 13 -8 14 13 7 14 -4 27 -9 29 -11z m157 -3 c-10 -10 -14 -21 -9 -23 4
-3 1 -3 -7 -2 -8 2 -5 -4 8 -12 12 -9 22 -25 22 -35 0 -38 21 -28 41 20 19 43
25 49 41 40 10 -6 15 -15 12 -21 -4 -6 0 -17 10 -23 16 -12 13 -45 -5 -45 -5
0 -8 -13 -7 -30 2 -26 11 -32 14 -9 1 5 2 15 3 22 3 19 31 -24 31 -47 0 -11
-17 -35 -37 -54 -34 -29 -43 -32 -84 -29 -30 2 -58 13 -81 30 -25 19 -47 27
-76 27 -47 0 -56 14 -15 25 60 15 114 76 107 120 -2 11 7 30 18 42 26 28 38
31 14 4z m-256 -22 c0 -16 -13 -39 -21 -39 -5 0 -9 11 -9 23 0 14 6 24 15 24
8 0 15 -4 15 -8z m-186 -12 c-2 -7 5 -22 17 -33 13 -10 19 -13 15 -6 -4 6 -2
12 4 12 6 0 10 -8 8 -17 -2 -10 -10 -17 -17 -15 -7 1 -9 -2 -6 -8 4 -6 13 -9
21 -6 9 3 11 0 7 -12 -6 -15 -5 -15 10 -3 15 12 17 11 17 -3 0 -12 -7 -16 -22
-14 -16 2 -32 19 -50 53 -32 58 -33 65 -13 65 8 0 12 -6 9 -13z m123 -19 c-3
-7 -5 -2 -5 12 0 14 2 19 5 13 2 -7 2 -19 0 -25z m113 2 c0 -32 -14 -40 -24
-15 -6 18 2 45 15 45 5 0 9 -13 9 -30z m-401 -2 c15 -11 34 -15 48 -12 22 6
29 -3 23 -31 -1 -5 2 -7 6 -2 4 4 25 -9 46 -30 33 -32 44 -37 80 -36 31 2 49
-4 66 -19 20 -19 26 -21 55 -10 54 19 76 14 125 -29 57 -50 85 -65 137 -73 62
-11 75 -23 40 -36 -39 -16 -151 -6 -198 16 -32 15 -40 16 -62 4 -23 -12 -28
-11 -54 14 -26 25 -34 28 -73 22 -103 -16 -111 -14 -130 26 -12 26 -27 40 -45
44 -16 4 -48 24 -72 46 -24 21 -61 43 -82 48 -33 9 -79 49 -79 69 0 3 33 6 73
6 52 0 79 -5 96 -17z m491 -12 c0 -2 -8 -10 -17 -17 -16 -13 -17 -12 -4 4 13
16 21 21 21 13z m-346 -41 l19 -30 -26 24 c-15 13 -24 28 -21 33 3 5 7 8 8 6
1 -2 10 -16 20 -33z m219 -2 c-7 -17 -33 -17 -33 0 0 21 22 39 31 25 4 -6 5
-17 2 -25z m-68 -3 c3 -5 -1 -10 -10 -10 -9 0 -13 5 -10 10 3 6 8 10 10 10 2
0 7 -4 10 -10z m149 -5 c-4 -8 -10 -12 -15 -9 -11 6 -2 24 11 24 5 0 7 -7 4
-15z m-24 -19 c0 -3 -4 -8 -10 -11 -5 -3 -10 -1 -10 4 0 6 5 11 10 11 6 0 10
-2 10 -4z m-115 -26 c-3 -5 -12 -7 -20 -3 -21 7 -19 13 6 13 11 0 18 -4 14
-10z m45 6 c0 -2 -7 -6 -15 -10 -8 -3 -15 -1 -15 4 0 6 7 10 15 10 8 0 15 -2
15 -4z m202 -89 c15 -12 26 -23 23 -25 -6 -6 -95 38 -95 48 0 12 42 -1 72 -23z
m-122 -247 c0 -10 -7 -23 -15 -30 -11 -9 -12 -17 -6 -23 7 -7 -4 -20 -30 -39
-41 -30 -43 -47 -6 -49 20 -1 21 -2 2 -6 -11 -3 -31 -13 -45 -23 -50 -34 -53
-35 -40 -9 7 13 32 47 56 76 45 52 51 63 35 63 -8 0 -84 -94 -108 -135 -11
-18 -12 -17 -13 18 0 33 3 37 24 37 21 0 25 5 28 38 3 31 6 37 24 34 17 -2 23
4 27 28 4 18 13 30 22 30 8 0 15 7 15 16 0 14 3 14 15 4 8 -7 15 -20 15 -30z
m353 -46 c10 -6 27 -9 38 -7 13 4 26 -3 39 -20 11 -14 30 -29 41 -32 19 -6 19
-8 4 -25 -16 -18 -18 -18 -58 3 l-40 21 -58 -21 -58 -21 -17 26 c-15 23 -15
29 -3 51 27 47 67 56 112 25z m-163 -67 c14 -8 24 -19 23 -25 -2 -7 3 -11 9
-9 7 1 14 -8 16 -20 2 -13 -1 -23 -7 -23 -6 0 -11 6 -12 13 0 10 -2 10 -6 0
-7 -19 -36 -16 -55 6 -9 11 -14 21 -12 24 3 2 -2 7 -11 11 -9 3 -13 2 -10 -4
3 -6 -1 -7 -9 -4 -9 3 -13 10 -10 15 3 5 -5 9 -18 9 -18 0 -20 2 -8 10 21 14
81 12 110 -3z m340 -24 c0 -24 -58 -155 -84 -190 -29 -39 -118 -94 -132 -81
-8 9 48 58 74 64 12 4 22 11 22 17 0 6 7 18 15 27 9 10 18 41 22 69 5 41 12
57 35 76 29 25 48 32 48 18z m-430 -18 c0 -1 -9 -5 -19 -8 -13 -3 -18 -1 -14
9 4 10 33 10 33 -1z m-135 -22 c-3 -10 -9 -43 -11 -73 -4 -51 5 -89 36 -150 4
-8 4 -24 0 -35 -4 -11 -10 -39 -14 -62 -6 -38 -4 -43 13 -43 11 0 37 -11 57
-25 30 -20 44 -24 73 -19 20 4 40 9 45 12 6 3 31 6 58 7 l48 2 0 -37 c0 -64
-30 -141 -120 -310 -118 -222 -166 -304 -173 -293 -19 31 -125 506 -126 563 0
14 -7 70 -16 125 -8 55 -14 138 -13 185 l3 84 50 38 c27 20 58 39 70 41 11 2
22 5 24 6 2 0 0 -7 -4 -16z m650 -103 c-3 -5 -18 -10 -33 -10 -22 0 -24 2 -12
11 13 9 12 10 -2 5 -20 -6 -24 4 -7 21 7 7 8 17 1 28 -8 15 -10 14 -16 -10 -4
-15 -4 -35 -1 -45 4 -11 0 -19 -12 -23 -10 -2 -27 -8 -37 -13 -18 -7 -18 -4 4
32 13 21 26 41 29 44 4 3 6 11 7 18 1 6 2 19 3 27 0 9 17 -2 42 -30 22 -24 38
-49 34 -55z m-474 62 c27 -24 29 -30 16 -35 -9 -3 -19 -1 -23 5 -4 7 -3 8 4 4
7 -4 12 -3 12 2 0 5 -8 13 -17 16 -10 3 -29 13 -43 21 -25 14 -25 15 -3 15 13
0 37 -13 54 -28z m84 18 c3 -5 1 -10 -4 -10 -6 0 -11 5 -11 10 0 6 2 10 4 10
3 0 8 -4 11 -10z m-108 -85 c-6 -17 -37 -18 -37 -1 0 9 8 14 20 13 11 -1 19
-6 17 -12z m-459 -71 c12 -8 22 -20 22 -26 0 -7 -6 -6 -15 2 -8 7 -15 8 -15 2
0 -5 7 -15 15 -22 8 -7 31 -40 52 -74 20 -33 48 -74 62 -90 22 -25 23 -28 6
-21 -11 4 -38 9 -60 10 -43 3 -58 19 -25 28 38 10 13 59 -35 69 -11 2 -19 10
-17 17 2 8 -4 21 -13 31 -8 9 -13 24 -10 32 3 8 -1 21 -10 28 -35 29 2 43 43
14z m82 -74 c4 -15 13 -24 23 -24 12 1 18 -9 23 -35 3 -20 8 -44 11 -55 10
-34 -16 -7 -57 63 -45 75 -47 84 -23 79 9 -2 20 -14 23 -28z m484 -20 c14 -5
26 -16 26 -25 0 -8 5 -15 11 -15 5 0 8 4 5 9 -3 4 3 16 14 26 22 20 72 15 106
-9 18 -14 18 -16 -15 -50 -39 -40 -40 -40 -93 -26 -27 8 -39 18 -47 40 -11 32
-31 41 -31 15 0 -14 -3 -13 -24 2 -21 16 -22 19 -7 30 20 15 23 15 55 3z m246
-74 c0 -22 -17 -46 -32 -46 -13 0 -9 68 5 73 18 7 27 -2 27 -27z m-236 -4 c2
-4 1 -14 -4 -21 -11 -19 -41 -6 -34 14 6 16 29 20 38 7z m110 -440 c-6 -4 -13
-15 -17 -25 -4 -9 -18 -22 -32 -27 -16 -6 -25 -16 -23 -27 2 -12 -7 -21 -30
-28 -48 -16 -59 -31 -33 -47 36 -22 23 -31 -36 -24 -52 6 -86 16 -51 16 15 0
170 124 176 141 7 19 -12 7 -71 -46 -34 -30 -83 -66 -110 -81 l-50 -27 42 53
c22 28 41 57 41 63 0 6 6 3 13 -7 13 -18 15 -18 35 5 12 12 22 29 22 36 0 7 8
13 18 13 10 0 22 4 28 9 9 9 74 19 84 13 2 -2 0 -6 -6 -10z"/>
<path d="M2655 4340 c3 -5 8 -10 11 -10 2 0 4 5 4 10 0 6 -5 10 -11 10 -5 0
-7 -4 -4 -10z"/>
<path d="M2940 4311 c-14 -4 -20 -10 -14 -14 6 -3 20 0 30 8 21 16 20 16 -16
6z"/>
<path d="M2910 4270 c0 -5 5 -10 10 -10 6 0 10 5 10 10 0 6 -4 10 -10 10 -5 0
-10 -4 -10 -10z"/>
<path d="M3030 3910 c0 -5 7 -10 16 -10 8 0 12 5 9 10 -3 6 -10 10 -16 10 -5
0 -9 -4 -9 -10z"/>
<path d="M3085 3910 c-3 -6 1 -7 9 -4 18 7 21 14 7 14 -6 0 -13 -4 -16 -10z"/>
<path d="M3094 3566 c1 -19 4 -22 15 -13 9 8 10 12 2 15 -6 2 -9 8 -5 13 3 5
1 9 -4 9 -6 0 -9 -11 -8 -24z"/>
<path d="M2367 3949 c7 -7 15 -10 18 -7 3 3 -2 9 -12 12 -14 6 -15 5 -6 -5z"/>
<path d="M2447 3853 c-12 -12 -7 -22 8 -17 8 4 15 10 15 15 0 11 -14 12 -23 2z"/>
<path d="M2637 3823 c-11 -10 -8 -25 3 -18 6 3 10 1 10 -6 0 -8 4 -8 15 1 8 7
12 16 9 21 -6 11 -28 12 -37 2z"/>
<path d="M3305 3590 c3 -5 8 -10 11 -10 2 0 4 5 4 10 0 6 -5 10 -11 10 -5 0
-7 -4 -4 -10z"/>
</g>
</svg>
