<?xml version="1.0" standalone="no"?>
<!DOCTYPE svg PUBLIC "-//W3C//DTD SVG 20010904//EN"
 "http://www.w3.org/TR/2001/REC-SVG-20010904/DTD/svg10.dtd">
<svg version="1.0" xmlns="http://www.w3.org/2000/svg"
 width="736.000000pt" height="736.000000pt" viewBox="0 0 736.000000 736.000000"
 preserveAspectRatio="xMidYMid meet">

<g transform="translate(0.000000,736.000000) scale(0.100000,-0.100000)"
fill="#000000" stroke="none">
<path d="M4045 6026 c-16 -7 -43 -24 -60 -38 -36 -30 -88 -58 -109 -58 -8 0
-36 18 -61 40 -59 51 -91 53 -135 6 l-32 -34 -44 34 c-73 55 -123 54 -207 -3
-35 -24 -42 -25 -120 -19 -134 11 -179 -19 -179 -115 1 -81 48 -154 197 -304
139 -141 229 -204 320 -226 111 -26 99 -10 106 -150 4 -68 13 -147 22 -176 12
-40 14 -66 7 -115 -14 -93 -93 -533 -140 -773 -103 -526 -119 -823 -74 -1332
9 -95 14 -180 12 -189 -2 -9 -18 21 -37 67 -19 46 -87 194 -151 329 -64 135
-120 253 -123 263 -5 12 4 29 26 53 168 183 247 600 162 864 -31 96 -204 440
-222 440 -11 0 -21 -39 -43 -170 -6 -36 -26 -137 -45 -225 -46 -218 -65 -364
-65 -502 l0 -117 -54 73 c-52 69 -55 76 -61 149 -26 324 -32 361 -80 547 -70
270 -140 435 -233 551 -42 52 -265 243 -284 244 -18 0 -20 -64 -9 -200 36
-428 128 -654 402 -995 164 -203 250 -321 319 -435 61 -102 230 -420 230 -433
0 -4 -31 16 -69 43 -67 50 -69 52 -96 135 -85 261 -329 477 -873 771 -97 53
-193 108 -212 122 -19 15 -51 37 -70 50 -19 13 -63 53 -97 90 -33 37 -65 63
-70 59 -15 -15 -4 -127 22 -223 57 -218 153 -363 325 -494 164 -124 318 -204
610 -315 301 -114 464 -207 549 -315 44 -55 177 -337 220 -465 16 -50 35 -124
42 -165 15 -101 17 -491 2 -615 -12 -97 -56 -285 -88 -374 -10 -30 -12 -48 -5
-55 14 -14 35 42 75 197 47 184 59 319 55 592 -7 464 -9 439 30 535 19 47 73
162 120 255 l85 170 82 55 c46 30 120 76 166 103 l84 47 85 -40 c147 -69 233
-85 448 -85 207 1 276 13 454 80 184 69 416 188 416 214 0 5 -64 30 -142 56
-136 45 -146 47 -218 41 l-75 -7 48 31 c109 69 213 191 278 324 41 83 55 135
45 161 -6 17 -20 12 -91 -35 -75 -50 -173 -86 -374 -136 -340 -86 -440 -124
-550 -208 -59 -45 -137 -143 -196 -248 -35 -61 -45 -70 -124 -114 -47 -27
-126 -72 -174 -101 -48 -29 -90 -53 -93 -53 -13 0 49 87 194 275 188 242 257
320 475 534 156 153 192 197 282 342 13 21 34 37 60 46 42 14 85 49 85 69 0 6
20 15 45 19 65 9 109 30 156 72 64 58 84 104 84 198 0 77 -2 84 -54 185 -29
58 -57 109 -61 114 -12 12 -248 -113 -287 -153 -47 -48 -57 -96 -43 -193 l11
-78 -28 -24 c-24 -20 -28 -32 -28 -73 0 -26 9 -74 19 -105 22 -68 16 -91 -47
-172 -44 -55 -387 -406 -397 -406 -4 0 -5 53 -2 118 7 191 -26 342 -120 546
-64 140 -85 202 -94 276 -4 33 -10 62 -14 65 -15 9 -51 -44 -113 -165 -101
-199 -137 -336 -137 -520 0 -116 4 -145 56 -387 26 -122 34 -186 34 -260 0
-122 -9 -155 -66 -240 -113 -169 -223 -375 -295 -552 -30 -76 -39 -90 -43 -70
-15 66 -28 236 -33 439 -9 374 21 655 136 1263 37 199 76 411 85 472 10 60 22
118 28 129 6 12 41 50 78 86 47 45 71 77 80 105 l12 40 251 1 c266 1 450 19
550 52 62 20 71 44 37 104 -19 33 -20 45 -12 84 10 47 6 84 -9 84 -5 0 -69 29
-144 64 -122 59 -135 67 -135 91 0 17 -14 39 -44 68 -25 25 -60 77 -85 127
-24 49 -62 105 -88 132 -69 70 -165 96 -238 64z m150 -37 c59 -28 107 -85 152
-179 19 -41 55 -96 79 -122 24 -26 44 -54 44 -63 0 -50 -91 -143 -216 -221
-78 -48 -205 -98 -284 -110 l-45 -7 69 71 c76 78 121 141 131 185 11 41 -11
33 -42 -15 -71 -112 -190 -238 -224 -238 -20 0 -30 85 -23 192 6 91 5 110 -7
106 -22 -7 -31 -66 -27 -175 3 -99 2 -102 -14 -80 -21 27 -69 146 -100 247
-31 104 -33 295 -3 355 16 32 26 41 50 43 24 2 38 -5 69 -39 36 -38 43 -41 79
-36 21 3 56 18 78 34 111 79 155 89 234 52z m-629 -25 c68 -44 71 -52 62 -135
-11 -99 4 -199 46 -306 18 -49 37 -99 41 -113 l7 -25 -27 25 c-41 38 -132 162
-162 222 -15 29 -36 85 -48 123 -23 76 -40 84 -39 19 0 -73 114 -272 217 -383
31 -32 31 -33 7 -26 -87 26 -185 105 -234 189 -22 37 -43 69 -48 72 -21 13 -4
-32 39 -102 49 -79 99 -127 171 -163 46 -23 57 -36 17 -21 -93 36 -192 108
-312 228 -123 125 -165 187 -171 255 -4 46 -1 57 20 81 26 30 38 32 138 21 62
-7 68 -6 133 29 38 20 77 36 86 36 10 0 36 -12 57 -26z m1071 -451 c81 -35
132 -62 129 -69 -2 -6 -7 -32 -11 -57 -6 -37 -3 -53 14 -80 35 -58 31 -63 -66
-81 -49 -8 -131 -20 -183 -26 -128 -14 -457 -25 -503 -16 -66 12 -40 26 51 26
104 1 213 19 335 56 81 25 110 44 93 61 -3 4 -49 -8 -101 -25 -141 -48 -415
-82 -415 -52 0 5 33 18 73 30 149 42 341 161 407 254 14 20 29 36 34 36 5 0
69 -26 143 -57z m-849 -235 c19 -19 35 -23 88 -23 l64 0 0 -40 c0 -73 -73
-188 -145 -228 -16 -9 -17 -7 -34 58 -12 44 -15 255 -4 255 4 0 17 -10 31 -22z
m-1352 -250 c129 -98 190 -169 249 -292 53 -111 105 -260 144 -413 26 -101 73
-414 69 -455 -3 -31 -4 -31 -54 38 -128 173 -178 295 -309 767 -10 35 -22 57
-31 57 -18 0 -18 -11 6 -106 45 -171 125 -404 176 -513 30 -63 53 -116 51
-117 -4 -5 -115 146 -159 216 -50 77 -101 183 -132 268 -33 92 -72 289 -81
402 -3 47 -8 111 -11 143 -2 31 0 57 4 57 5 0 40 -23 78 -52z m2724 -124 c109
-44 131 -244 39 -348 -30 -35 -90 -68 -141 -80 -23 -5 -28 -3 -34 19 -10 40
-30 29 -40 -22 -10 -51 -37 -77 -90 -88 -29 -6 -32 -4 -38 26 -12 61 -6 123
14 154 23 34 25 72 8 160 -14 79 -1 117 52 150 73 46 160 57 230 29z m-1020
-234 c7 -30 37 -109 67 -175 105 -228 139 -381 131 -579 -7 -141 -11 -152 -94
-241 l-55 -60 8 60 c16 121 10 293 -15 385 -26 95 -61 172 -79 178 -19 5 -16
-14 11 -82 48 -120 72 -309 56 -442 -14 -118 -25 -145 -93 -236 l-62 -83 -7
120 c-7 123 -18 187 -63 380 -44 190 -34 369 31 563 31 95 136 296 145 279 4
-7 12 -37 19 -67z m-832 -331 c103 -201 127 -296 119 -462 -6 -124 -26 -234
-63 -346 -29 -87 -93 -206 -104 -194 -16 16 -40 200 -40 304 0 62 8 154 20
220 24 136 24 139 6 139 -9 0 -18 -18 -25 -48 -42 -197 -46 -379 -12 -545 34
-163 14 -159 -69 14 l-54 111 -4 137 c-5 155 4 227 74 581 52 259 53 265 64
254 5 -5 44 -79 88 -165z m-1313 -197 c39 -27 162 -102 275 -167 113 -65 247
-144 298 -177 279 -175 440 -343 511 -532 12 -32 20 -61 17 -63 -5 -6 -66 25
-90 46 -10 9 -34 40 -53 70 -46 71 -133 158 -206 204 -32 21 -122 69 -200 108
-215 108 -319 190 -369 294 -23 47 -45 55 -40 14 7 -51 93 -155 177 -214 33
-23 137 -81 230 -129 98 -50 197 -109 235 -139 60 -49 165 -166 156 -175 -7
-6 -385 146 -501 203 -163 79 -257 145 -375 264 -78 78 -115 124 -142 176 -45
87 -87 219 -95 299 l-6 61 54 -47 c30 -26 86 -69 124 -96z m3459 -184 c-24
-82 -63 -145 -137 -224 -180 -192 -525 -337 -857 -359 -89 -5 -94 -5 -75 10
32 26 118 63 285 120 399 136 536 195 567 242 26 39 7 38 -60 -5 -81 -51 -137
-75 -374 -156 -105 -37 -258 -95 -340 -130 -81 -35 -149 -63 -151 -61 -11 10
100 165 159 221 111 105 185 137 502 218 196 50 370 111 457 161 38 22 40 19
24 -37z m-29 -483 c44 -15 82 -29 84 -32 15 -12 -151 -98 -294 -151 -230 -86
-350 -111 -521 -112 -165 0 -351 42 -464 104 l-25 14 27 12 c24 11 39 8 127
-23 55 -20 140 -41 188 -48 153 -20 333 5 333 47 0 10 -6 13 -17 10 -53 -16
-171 -36 -216 -36 -64 0 -215 31 -282 58 l-50 20 90 6 c244 18 347 39 537 107
158 56 170 59 293 55 88 -3 126 -9 190 -31z"/>
</g>
</svg>
