<?xml version="1.0" standalone="no"?>
<!DOCTYPE svg PUBLIC "-//W3C//DTD SVG 20010904//EN"
 "http://www.w3.org/TR/2001/REC-SVG-20010904/DTD/svg10.dtd">
<svg version="1.0" xmlns="http://www.w3.org/2000/svg"
 width="360.000000pt" height="360.000000pt" viewBox="0 0 360.000000 360.000000"
 preserveAspectRatio="xMidYMid meet">

<g transform="translate(0.000000,360.000000) scale(0.100000,-0.100000)"
fill="#000000" stroke="none">
<path d="M1837 3259 c-9 -5 -27 -29 -38 -52 -26 -51 -34 -57 -79 -57 -43 -1
-108 -29 -137 -61 -12 -13 -34 -51 -48 -84 -31 -70 -35 -72 -86 -73 -21 -1
-43 -4 -49 -7 -13 -8 -13 -66 0 -99 11 -30 4 -32 -28 -10 -13 9 -26 14 -29 11
-3 -3 12 -14 34 -25 21 -11 46 -33 55 -49 9 -15 37 -49 63 -75 l47 -46 -65 -7
c-74 -8 -88 -3 -155 59 -52 48 -101 143 -104 201 -1 37 -2 38 -5 8 -3 -20 -10
-33 -18 -33 -19 0 -122 -108 -136 -143 -9 -21 -14 -25 -20 -15 -6 8 -9 1 -9
-20 0 -27 -10 -43 -52 -84 l-53 -50 49 41 c27 23 56 39 63 37 7 -3 13 1 13 9
0 14 11 19 36 16 18 -2 63 56 97 125 l30 62 27 -56 c26 -55 101 -136 149 -162
16 -8 44 -10 85 -5 50 5 71 2 108 -14 40 -17 49 -18 65 -6 30 23 38 17 14 -9
-19 -20 -28 -23 -48 -15 -32 12 -80 12 -104 -2 -30 -16 -15 -26 52 -34 69 -8
60 0 171 -150 92 -125 129 -196 153 -296 11 -45 22 -69 31 -69 13 0 13 -4 0
-27 -16 -33 -31 -105 -46 -228 -6 -49 -23 -135 -36 -190 -39 -151 -54 -250
-55 -355 -1 -52 -4 -106 -8 -119 -10 -37 -27 -7 -35 62 -8 77 -29 125 -69 159
-32 27 -54 37 -42 18 4 -6 -7 -10 -26 -10 -23 0 -43 9 -64 29 -31 30 -80 50
-124 52 -22 1 -20 3 9 9 33 7 33 7 6 9 -15 0 -69 -10 -120 -24 -132 -35 -222
-48 -247 -34 -33 17 -32 4 2 -27 17 -16 53 -51 81 -77 137 -131 285 -131 382
1 35 46 43 52 76 52 39 0 82 -26 101 -61 14 -26 28 -119 18 -119 -4 0 -19 21
-34 46 -15 25 -29 43 -32 41 -10 -11 -61 -202 -56 -211 6 -10 -3 -4 -63 36
-94 65 -256 51 -330 -29 -23 -25 -33 -63 -16 -63 11 1 58 29 49 30 -5 0 -17
-5 -28 -10 -28 -15 -25 11 4 36 80 72 193 87 290 39 28 -14 43 -23 32 -19
-139 41 -180 38 -247 -13 -57 -44 -64 -123 -9 -82 39 29 106 35 208 19 l85
-14 -6 -35 c-3 -20 -9 -119 -12 -221 l-7 -185 27 -32 c50 -59 129 -65 231 -19
46 21 422 296 506 370 19 17 61 54 94 81 97 82 212 206 265 283 83 123 115
232 108 372 -3 75 -9 97 -39 156 -27 56 -42 74 -77 93 -83 45 -228 24 -368
-53 -49 -27 -59 -38 -62 -62 -6 -61 -36 -200 -53 -249 l-19 -50 7 58 c4 39 2
57 -6 57 -6 0 -14 0 -18 0 -4 0 -8 -7 -9 -16 -2 -10 -11 -22 -21 -27 -40 -21
-150 -147 -186 -212 -40 -74 -41 -54 -2 30 28 58 101 139 163 180 23 15 40 30
37 33 -7 8 -81 -47 -131 -97 -61 -62 -90 -113 -109 -191 -32 -132 -36 -140
-66 -140 -15 0 -30 4 -33 8 -12 19 66 376 105 482 43 117 138 245 239 326 104
81 133 111 64 65 -81 -55 -193 -168 -243 -245 -52 -79 -94 -194 -131 -355 -16
-69 -29 -113 -29 -98 -1 46 19 165 49 287 16 63 33 149 39 190 6 41 16 109 21
150 10 68 48 160 68 160 12 1 229 214 235 233 5 13 1 17 -19 17 -64 0 -141
-62 -214 -173 -22 -34 -42 -66 -44 -72 -6 -18 -16 1 -34 72 -25 94 -52 144
-142 266 -42 57 -79 110 -82 117 -2 8 10 24 29 37 38 26 47 29 37 11 -4 -7 10
4 30 24 44 44 91 61 251 88 66 12 135 26 154 32 43 13 115 79 131 119 12 27
11 33 -9 52 -19 19 -32 22 -111 22 -50 0 -90 1 -90 2 0 1 22 15 49 31 59 36
91 70 91 93 0 22 -41 55 -88 70 -104 33 -128 49 -167 110 -21 33 -46 64 -56
69 -23 13 -59 12 -82 -1z m110 -49 c68 -95 80 -105 140 -124 80 -25 133 -54
133 -71 0 -19 -54 -70 -104 -98 -21 -12 -37 -26 -35 -32 2 -6 34 -9 75 -7 76
4 144 -16 144 -41 0 -23 -61 -93 -100 -115 -19 -11 -78 -28 -130 -37 -52 -10
-138 -28 -190 -40 -65 -16 -97 -20 -101 -13 -4 6 -20 8 -38 5 -17 -4 -31 -5
-31 -3 0 2 66 30 148 62 163 64 212 99 212 152 0 40 -50 84 -129 113 -68 24
-75 30 -96 85 l-15 39 6 -35 c10 -57 28 -76 99 -101 66 -23 125 -72 125 -104
0 -8 -14 -30 -30 -49 -24 -27 -56 -44 -158 -81 -70 -26 -154 -63 -186 -83
l-59 -35 -44 23 c-47 25 -129 113 -158 169 -9 19 -18 55 -19 80 l-1 46 52 5
c28 3 54 8 56 10 2 3 20 40 40 82 42 88 77 115 155 125 51 6 112 -15 112 -39
0 -6 3 -8 8 -4 4 4 -6 18 -21 30 l-29 23 26 51 c28 55 37 62 81 59 22 -2 37
-13 62 -47z m-242 -590 c-3 -5 -11 -10 -16 -10 -6 0 -7 5 -4 10 3 6 11 10 16
10 6 0 7 -4 4 -10z m7 -26 c-30 -20 -51 -38 -48 -41 3 -3 12 0 21 7 9 7 18 10
21 7 9 -8 -35 -29 -46 -22 -6 4 -8 11 -4 16 9 16 86 69 98 69 6 0 -13 -16 -42
-36z m-102 -40 c22 -9 26 -12 10 -9 -14 2 -42 5 -63 5 -23 0 -36 4 -32 10 8
14 43 11 85 -6z m580 -284 c0 -5 -6 -13 -14 -17 -8 -4 -64 -54 -125 -111
l-110 -102 35 57 c38 63 127 161 159 174 28 11 55 11 55 -1z m-999 -1005 c30
-13 72 -27 94 -31 40 -6 163 7 198 21 32 13 17 -12 -24 -41 -53 -36 -148 -45
-200 -19 -33 17 -137 95 -126 95 3 0 29 -11 58 -25z"/>
<path d="M1906 3185 c-9 -26 -7 -32 5 -12 6 10 9 21 6 23 -2 3 -7 -2 -11 -11z"/>
<path d="M1886 3135 c-9 -26 -7 -32 5 -12 6 10 9 21 6 23 -2 3 -7 -2 -11 -11z"/>
<path d="M1646 3048 c-17 -55 -47 -305 -45 -368 1 -19 10 44 20 140 11 96 26
197 34 225 8 27 12 51 10 53 -2 2 -11 -20 -19 -50z"/>
<path d="M1960 3066 c-15 -39 -12 -46 6 -13 9 16 13 31 10 34 -3 3 -10 -6 -16
-21z"/>
<path d="M1776 3015 c-3 -30 -31 -123 -61 -206 -31 -83 -54 -153 -52 -156 10
-9 118 304 124 358 3 32 4 59 1 59 -3 0 -8 -25 -12 -55z"/>
<path d="M2098 3023 c-1 -5 -18 -20 -36 -35 -19 -16 -29 -28 -23 -28 15 0 89
69 74 70 -6 0 -13 -3 -15 -7z"/>
<path d="M1852 2827 c-71 -104 -76 -114 -38 -72 38 42 91 124 84 131 -2 2 -23
-25 -46 -59z"/>
<path d="M2085 2759 c-68 -29 -119 -61 -65 -41 57 22 140 61 140 66 0 8 4 9
-75 -25z"/>
<path d="M2035 2160 c-10 -11 -13 -20 -7 -20 6 0 16 9 22 20 6 11 9 20 7 20
-2 0 -12 -9 -22 -20z"/>
<path d="M1585 3200 c-12 -4 6 -6 43 -2 55 4 67 2 93 -17 17 -13 33 -20 36
-17 3 3 -10 14 -28 25 -35 22 -106 27 -144 11z"/>
<path d="M1521 3179 c-13 -5 -45 -24 -70 -43 -25 -18 -68 -45 -94 -60 -26 -14
-59 -33 -72 -42 -30 -20 -68 -80 -62 -97 3 -7 6 -5 6 5 1 26 59 87 105 110 23
11 68 39 101 61 33 23 76 49 95 59 37 18 31 23 -9 7z"/>
<path d="M1015 3080 c-3 -5 -1 -10 4 -10 6 0 11 5 11 10 0 6 -2 10 -4 10 -3 0
-8 -4 -11 -10z"/>
<path d="M1044 3068 c-22 -30 -48 -127 -49 -180 0 -31 -3 -54 -7 -52 -3 2 -1
-9 5 -25 9 -25 6 -37 -25 -97 -56 -107 -79 -170 -69 -195 6 -19 9 -20 14 -6 4
10 2 17 -2 17 -14 0 40 130 109 265 l61 119 -3 80 c-3 77 -14 101 -34 74z"/>
<path d="M981 3017 c-11 -24 -21 -54 -20 -68 1 -21 2 -20 8 7 4 17 15 45 24
64 10 18 15 35 13 37 -2 2 -13 -16 -25 -40z"/>
<path d="M1443 3026 c15 -14 33 -26 39 -26 13 0 14 0 -32 29 l-35 23 28 -26z"/>
<path d="M962 2890 c0 -14 2 -19 5 -12 2 6 2 18 0 25 -3 6 -5 1 -5 -13z"/>
<path d="M1270 2886 c0 -2 8 -10 18 -17 15 -13 16 -12 3 4 -13 16 -21 21 -21
13z"/>
<path d="M676 2872 c-3 -3 -6 -12 -6 -21 0 -14 2 -14 10 -1 7 10 10 -8 10 -60
0 -96 11 -133 61 -210 41 -65 61 -131 75 -255 5 -45 9 -55 16 -40 6 14 7 10 3
-15 -3 -19 -1 -48 3 -65 7 -23 8 -15 7 35 -1 36 -4 72 -7 80 -17 42 -30 127
-38 240 -5 69 -14 143 -20 165 -24 84 -91 170 -114 147z"/>
<path d="M663 2760 c0 -41 2 -58 4 -37 2 20 2 54 0 75 -2 20 -4 3 -4 -38z"/>
<path d="M1088 2798 c-19 -16 -48 -59 -48 -73 0 -5 10 6 21 25 12 19 29 40 38
47 9 7 13 13 10 13 -3 0 -12 -6 -21 -12z"/>
<path d="M2513 2723 c9 -2 25 -2 35 0 9 3 1 5 -18 5 -19 0 -27 -2 -17 -5z"/>
<path d="M2657 2723 c35 -7 38 -39 9 -83 -28 -43 -32 -55 -15 -44 6 3 22 29
34 57 22 47 23 51 7 63 -9 8 -26 13 -37 12 -18 -1 -17 -1 2 -5z"/>
<path d="M2652 2688 c-5 -7 -18 -39 -27 -70 -9 -31 -36 -87 -61 -123 -43 -65
-56 -101 -33 -93 19 6 104 171 106 205 1 18 9 46 18 63 16 31 15 39 -3 18z
m-90 -227 c-9 -16 -18 -28 -21 -26 -4 5 27 55 34 55 2 0 -4 -13 -13 -29z"/>
<path d="M2741 2685 c34 -18 109 -127 109 -158 0 -39 -48 -73 -124 -86 -74
-13 -156 -45 -156 -61 0 -15 12 -13 107 20 47 17 98 30 112 30 40 0 69 -26 77
-67 6 -31 3 -39 -16 -55 -18 -15 -40 -18 -122 -18 -100 0 -165 -12 -202 -37
-14 -9 -23 -9 -33 -2 -10 9 -2 20 37 52 65 52 67 70 6 47 -24 -9 -26 -8 -20
14 9 37 -12 39 -40 4 l-26 -33 0 52 c0 57 -13 75 -30 43 -6 -12 -7 -20 -1 -20
5 0 12 6 14 13 3 6 6 -16 6 -50 1 -35 4 -63 9 -63 4 0 16 16 26 35 11 19 23
35 28 35 10 0 -7 -36 -22 -45 -6 -3 -10 -13 -10 -21 0 -11 10 -9 45 12 25 14
45 22 45 17 0 -4 -20 -19 -45 -32 -25 -13 -45 -28 -45 -32 0 -15 -28 -10 -34
7 -3 9 -6 33 -6 53 0 26 -7 46 -22 63 -13 13 -43 46 -67 73 -24 28 -39 41 -33
30 5 -11 29 -41 51 -67 23 -25 36 -48 30 -50 -8 -3 -4 -23 13 -63 20 -52 22
-63 11 -85 -14 -27 -18 -63 -5 -44 4 6 29 14 56 16 26 3 60 15 75 25 44 33 94
44 193 41 113 -3 148 12 148 63 0 41 -29 88 -59 96 l-23 6 31 24 c45 35 42 71
-14 149 -42 58 -71 85 -92 84 -4 -1 4 -7 18 -15z m-31 -262 c-60 -23 -123 -42
-115 -34 13 11 95 40 115 40 13 -1 13 -1 0 -6z m-290 -61 c0 -15 -2 -15 -10
-2 -13 20 -13 33 0 25 6 -3 10 -14 10 -23z m59 -125 c9 -11 5 -14 -19 -15 -20
0 -30 4 -30 14 0 18 34 18 49 1z"/>
<path d="M670 2672 c0 -33 61 -122 84 -122 6 0 0 7 -13 16 -13 9 -34 40 -47
68 -13 28 -24 45 -24 38z"/>
<path d="M2331 2649 c-18 -6 -31 -12 -29 -14 2 -3 20 0 38 5 46 13 69 4 76
-28 11 -50 36 -127 45 -136 14 -16 11 6 -11 69 -11 32 -20 72 -20 89 0 18 -3
26 -8 19 -5 -8 -13 -9 -22 -3 -18 11 -24 11 -69 -1z"/>
<path d="M2261 2584 c-1 -11 6 -29 15 -40 8 -10 12 -13 9 -6 -4 8 -11 26 -15
40 -7 22 -8 23 -9 6z"/>
<path d="M1145 2510 c-27 -27 -46 -53 -42 -56 4 -4 -4 -21 -17 -38 -51 -68
-78 -142 -78 -214 1 -21 -8 -61 -19 -90 -10 -29 -19 -63 -18 -75 0 -12 7 2 14
30 20 72 57 142 94 177 17 17 31 36 31 44 0 14 47 81 81 114 29 29 39 146 14
155 -6 2 -33 -19 -60 -47z"/>
<path d="M872 2450 c0 -14 2 -19 5 -12 2 6 2 18 0 25 -3 6 -5 1 -5 -13z"/>
<path d="M1069 2423 l-24 -28 28 24 c25 23 32 31 24 31 -2 0 -14 -12 -28 -27z"/>
<path d="M863 2385 c0 -22 2 -30 4 -17 2 12 2 30 0 40 -3 9 -5 -1 -4 -23z"/>
<path d="M1020 2358 c-11 -18 -20 -37 -20 -42 0 -12 1 -10 28 37 26 45 19 50
-8 5z"/>
<path d="M1151 2336 c-19 -28 -27 -45 -18 -37 19 15 61 80 56 85 -2 2 -19 -20
-38 -48z"/>
<path d="M991 2284 c0 -11 3 -14 6 -6 3 7 2 16 -1 19 -3 4 -6 -2 -5 -13z"/>
<path d="M1365 2258 c-3 -13 -7 -48 -9 -78 -2 -35 -15 -83 -36 -130 -22 -51
-34 -98 -38 -145 -4 -52 -7 -63 -13 -45 -19 67 -10 117 37 206 25 47 43 88 41
91 -3 2 -24 -31 -48 -74 -53 -96 -62 -169 -31 -248 11 -27 26 -50 33 -50 18 0
76 98 94 159 25 84 16 227 -16 247 -8 5 -8 12 0 27 14 26 14 62 1 62 -5 0 -12
-10 -15 -22z"/>
<path d="M2215 2251 c-3 -6 -3 -11 1 -11 4 0 -3 -12 -17 -26 -23 -26 -23 -26
-1 -13 12 8 25 22 28 32 7 21 -1 34 -11 18z"/>
<path d="M2137 2163 c3 -7 6 -13 8 -13 1 0 7 6 13 13 8 10 6 13 -7 13 -11 0
-17 -6 -14 -13z"/>
<path d="M2391 2173 c-1 -6 -4 -20 -7 -30 -5 -17 -5 -17 6 0 6 10 9 23 6 30
-3 9 -5 9 -5 0z"/>
<path d="M861 2154 c0 -11 3 -14 6 -6 3 7 2 16 -1 19 -3 4 -6 -2 -5 -13z"/>
<path d="M2110 2151 c0 -5 -19 -23 -42 -40 -23 -17 -39 -31 -34 -31 16 0 96
69 86 75 -5 3 -10 2 -10 -4z"/>
<path d="M871 2114 c0 -11 3 -14 6 -6 3 7 2 16 -1 19 -3 4 -6 -2 -5 -13z"/>
<path d="M603 2100 c4 -15 0 -20 -14 -20 -10 0 -19 -7 -19 -15 0 -20 74 -100
127 -136 65 -45 62 -34 -3 14 -52 38 -114 105 -114 121 0 3 11 6 25 6 14 0 25
-4 25 -9 0 -4 33 -43 73 -84 40 -42 69 -79 63 -82 -6 -3 0 -2 13 1 14 4 21 2
18 -3 -4 -6 22 -18 56 -28 34 -9 81 -23 105 -31 40 -12 42 -12 32 6 -13 24
-13 33 0 25 6 -3 10 1 10 10 0 9 -4 14 -9 10 -6 -3 -21 11 -35 32 -15 21 -26
34 -26 30 0 -5 -20 12 -44 36 -55 56 -113 90 -196 116 -83 26 -94 26 -87 1z"/>
<path d="M2355 2094 c-9 -15 -12 -23 -6 -20 11 7 35 46 28 46 -3 0 -12 -12
-22 -26z"/>
<path d="M891 2050 c0 -8 4 -22 9 -30 12 -18 12 -2 0 25 -6 13 -9 15 -9 5z"/>
<path d="M1661 1957 c-24 -50 -50 -112 -58 -136 -17 -57 -17 -158 1 -208 10
-29 11 -53 5 -93 -9 -55 -5 -124 9 -147 4 -6 7 33 7 88 0 78 3 101 16 111 24
19 74 98 88 138 29 83 19 326 -14 336 -6 2 -30 -38 -54 -89z m-35 -237 c0
-136 -14 -157 -24 -35 -3 48 12 165 21 165 1 0 2 -59 3 -130z"/>
<path d="M2309 2033 c-13 -16 -12 -17 4 -4 9 7 17 15 17 17 0 8 -8 3 -21 -13z"/>
<path d="M961 1994 c0 -11 3 -14 6 -6 3 7 2 16 -1 19 -3 4 -6 -2 -5 -13z"/>
<path d="M970 1949 c0 -13 5 -31 10 -39 7 -11 8 -5 4 20 -8 43 -14 51 -14 19z"/>
<path d="M1031 1802 c48 -37 164 -115 154 -104 -17 19 -160 122 -169 122 -5 0
2 -8 15 -18z"/>
<path d="M1271 1764 c0 -11 3 -14 6 -6 3 7 2 16 -1 19 -3 4 -6 -2 -5 -13z"/>
<path d="M838 1753 c-25 -3 -38 -9 -38 -19 0 -8 5 -14 12 -14 6 0 3 -6 -7 -14
-18 -13 -14 -16 53 -50 39 -20 75 -36 79 -36 5 1 -26 19 -67 40 -51 26 -68 39
-52 40 12 0 46 -12 75 -27 29 -14 86 -39 127 -54 79 -29 68 -39 -15 -14 -27 8
-51 12 -53 10 -12 -11 119 -36 221 -42 104 -5 122 -9 157 -32 88 -60 161 -113
177 -130 10 -10 38 -28 63 -40 26 -12 36 -15 25 -6 -54 42 -257 186 -282 199
-15 8 -22 15 -15 16 18 0 14 22 -9 50 -13 16 -19 19 -15 8 4 -15 3 -16 -14 -6
-10 7 -17 15 -14 19 2 4 -4 6 -13 5 -10 0 -18 4 -18 11 0 6 -4 15 -9 20 -5 5
-6 2 -1 -6 9 -16 9 -16 -65 22 -90 45 -191 61 -302 50z"/>
<path d="M1263 1705 c0 -22 2 -30 4 -17 2 12 2 30 0 40 -3 9 -5 -1 -4 -23z"/>
</g>
</svg>
