<?xml version="1.0" standalone="no"?>
<!DOCTYPE svg PUBLIC "-//W3C//DTD SVG 20010904//EN"
 "http://www.w3.org/TR/2001/REC-SVG-20010904/DTD/svg10.dtd">
<svg version="1.0" xmlns="http://www.w3.org/2000/svg"
 width="900.000000pt" height="520.000000pt" viewBox="0 0 900.000000 520.000000"
 preserveAspectRatio="xMidYMid meet">

<g transform="translate(0.000000,520.000000) scale(0.100000,-0.100000)"
fill="#000000" stroke="none">
<path d="M5068 3913 c-56 -35 -53 24 -53 -1198 0 -1235 -3 -1170 57 -1201 22
-11 109 -14 483 -14 507 0 503 0 531 65 21 50 21 2249 0 2298 -28 69 -14 67
-528 67 -414 -1 -466 -2 -490 -17z m541 -1689 c42 -54 13 -118 -54 -118 -69 0
-99 71 -50 119 33 34 77 33 104 -1z m-25 -190 c9 -3 16 -11 16 -17 0 -7 -4 -7
-12 1 -21 21 -25 14 -27 -48 -1 -33 2 -60 6 -60 4 0 6 22 5 49 -4 46 -2 49 21
49 19 0 27 -7 32 -25 7 -28 -2 -46 -17 -37 -6 4 -9 1 -6 -7 5 -15 -12 -36 -33
-40 -29 -6 -66 11 -77 36 -17 36 -15 48 9 79 20 25 50 33 83 20z"/>
<path d="M5600 1981 c0 -6 4 -13 10 -16 6 -3 7 1 4 9 -7 18 -14 21 -14 7z"/>
<path d="M2832 3653 c-7 -3 -19 -18 -27 -33 -13 -25 -15 -136 -15 -770 0 -544
3 -747 12 -763 24 -46 27 -46 351 -47 l307 0 0 -84 0 -84 -39 -7 c-61 -10 -85
-43 -89 -123 -3 -80 10 -110 58 -134 32 -16 76 -18 471 -18 240 0 450 3 468 6
70 14 106 101 81 193 -12 47 -56 81 -102 81 l-28 0 0 85 0 85 313 0 314 0 24
26 24 26 0 758 0 758 -24 26 -24 26 -1031 -1 c-567 0 -1037 -3 -1044 -6z
m2038 -803 l0 -720 -997 2 -998 3 -3 705 c-1 388 0 711 3 718 3 9 213 12 1000
12 l995 0 0 -720z"/>
</g>
</svg>
